<svg width="39" height="33" viewBox="0 0 39 33" fill="none" xmlns="http://www.w3.org/2000/svg">
<path d="M34.6539 8.18298C34.6781 8.53296 34.6781 8.88302 34.6781 9.233C34.6781 19.908 26.8418 32.208 12.5194 32.208C8.1069 32.208 4.00793 30.8829 0.559937 28.583C1.18686 28.658 1.7896 28.683 2.44065 28.683C6.08146 28.683 9.43305 27.408 12.1095 25.233C8.68559 25.158 5.81628 22.833 4.82768 19.633C5.30996 19.708 5.79216 19.758 6.29855 19.758C6.99777 19.758 7.69706 19.6579 8.34804 19.483C4.77951 18.733 2.10302 15.483 2.10302 11.558V11.458C3.13979 12.058 4.34548 12.433 5.62331 12.483C3.52558 11.0329 2.15127 8.55797 2.15127 5.75795C2.15127 4.25798 2.53698 2.88298 3.21215 1.68297C7.04594 6.58297 12.8087 9.78291 19.2706 10.133C19.15 9.53297 19.0777 8.90803 19.0777 8.28302C19.0777 3.83297 22.5498 0.208008 26.8658 0.208008C29.1081 0.208008 31.1335 1.18301 32.5561 2.75801C34.3162 2.40802 36.0041 1.73299 37.4991 0.808012C36.9203 2.68305 35.6906 4.25806 34.0752 5.25799C35.6425 5.08307 37.1615 4.63297 38.5599 4.00803C37.4992 5.60797 36.173 7.03291 34.6539 8.18298Z" fill="white"/>
</svg>
