<svg width="42" height="29" viewBox="0 0 42 29" fill="none" xmlns="http://www.w3.org/2000/svg">
<path d="M40.7033 4.50031C40.2318 2.77584 38.8425 1.41769 37.0785 0.956784C33.8811 0.119263 21.0601 0.119263 21.0601 0.119263C21.0601 0.119263 8.23907 0.119263 5.04163 0.956784C3.27763 1.41776 1.88833 2.77584 1.41679 4.50031C0.560059 7.62603 0.560059 14.1476 0.560059 14.1476C0.560059 14.1476 0.560059 20.6691 1.41679 23.7948C1.88833 25.5193 3.27763 26.8208 5.04163 27.2817C8.23907 28.1193 21.0601 28.1193 21.0601 28.1193C21.0601 28.1193 33.881 28.1193 37.0785 27.2817C38.8425 26.8208 40.2318 25.5193 40.7033 23.7948C41.5601 20.6691 41.5601 14.1476 41.5601 14.1476C41.5601 14.1476 41.5601 7.62603 40.7033 4.50031ZM16.8668 20.0686V8.2265L27.5827 14.1477L16.8668 20.0686Z" fill="white"/>
</svg>
