<svg width="48" height="30" viewBox="0 0 48 30" fill="none" xmlns="http://www.w3.org/2000/svg">
<path d="M29.3935 12.5421C29.5338 13.2741 29.6339 14.006 29.6339 14.9555C29.6339 23.2441 24.0033 29.1193 15.5275 29.1193C7.41232 29.1193 0.839966 22.6309 0.839966 14.6193C0.839966 6.60764 7.41232 0.119263 15.5275 0.119263C19.4949 0.119263 22.8011 1.54351 25.3659 3.91736L21.3784 7.69566C20.2963 6.667 18.3928 5.46032 15.5275 5.46032C10.5181 5.46032 6.43039 9.55514 6.43039 14.6193C6.43039 19.6834 10.5181 23.7782 15.5275 23.7782C21.3383 23.7782 23.5224 19.6438 23.863 17.5271H15.5275V12.5421H29.3935V12.5421ZM43.5765 13.0283V8.81926H39.2926V13.0283H35.0292V17.2575H39.2926V21.4665H43.5765V17.2575H47.84V13.0283H43.5765Z" fill="white"/>
</svg>
