<svg width="20" height="20" viewBox="0 0 20 20" fill="none" xmlns="http://www.w3.org/2000/svg">
<path d="M11.5 8C11.776 8 12 7.776 12 7.5V3.5C12 2.673 11.327 2 10.5 2H1.5C0.673 2 0 2.673 0 3.5V15.5C0 16.246 0.537 17.06 1.222 17.353L6.384 19.565C6.562 19.641 6.743 19.679 6.916 19.679C7.129 19.679 7.332 19.621 7.505 19.507C7.819 19.3 8 18.932 8 18.499V16.999H10.5C11.327 16.999 12 16.326 12 15.499V11.499C12 11.223 11.776 10.999 11.5 10.999C11.224 10.999 11 11.223 11 11.499V15.499C11 15.775 10.776 15.999 10.5 15.999H8V6.499C8 5.753 7.463 4.939 6.778 4.646L2.936 2.999H10.5C10.776 2.999 11 3.223 11 3.499V7.499C11 7.775 11.224 7.999 11.5 7.999V8ZM6.384 5.566C6.706 5.704 7 6.15 7 6.5V18.5C7 18.604 6.972 18.662 6.955 18.673C6.938 18.684 6.874 18.687 6.778 18.646L1.616 16.434C1.294 16.296 1 15.851 1 15.5V3.5C1 3.421 1.018 3.347 1.051 3.28L6.384 5.566V5.566Z" fill="#FF0000"/>
<path d="M18.354 9.14601L15.354 6.14601C15.159 5.95101 14.842 5.95101 14.647 6.14601C14.452 6.34101 14.452 6.65801 14.647 6.85301L16.793 8.99901H10.5C10.224 8.99901 10 9.22301 10 9.49901C10 9.77501 10.224 9.99901 10.5 9.99901H16.793L14.647 12.145C14.452 12.34 14.452 12.657 14.647 12.852C14.745 12.95 14.873 12.998 15.001 12.998C15.129 12.998 15.257 12.949 15.355 12.852L18.355 9.85201C18.55 9.65701 18.55 9.34001 18.355 9.14501L18.354 9.14601Z" fill="#FF0000"/>
</svg>
