<svg width="34" height="34" viewBox="0 0 34 34" fill="none" xmlns="http://www.w3.org/2000/svg">
<path d="M28.4973 5.56069C25.4109 2.46694 21.3007 0.765381 16.9326 0.765381C7.9165 0.765381 0.579897 8.10199 0.579897 17.1181C0.579897 19.9982 1.33124 22.812 2.76025 25.2944L0.439941 33.7654L9.10981 31.4893C11.4964 32.7931 14.185 33.4781 16.9252 33.4781H16.9326C25.9413 33.4781 33.4399 26.1415 33.4399 17.1254C33.4399 12.7573 31.5837 8.65444 28.4973 5.56069ZM16.9326 30.7232C14.487 30.7232 12.0931 30.0676 10.0085 28.8301L9.51494 28.5355L4.37342 29.8835L5.74351 24.8672L5.41941 24.3515C4.05668 22.1859 3.34217 19.6888 3.34217 17.1181C3.34217 9.62677 9.44128 3.52766 16.9399 3.52766C20.5714 3.52766 23.9819 4.94194 26.5453 7.5127C29.1087 10.0835 30.685 13.494 30.6777 17.1254C30.6777 24.6241 24.4239 30.7232 16.9326 30.7232ZM24.387 20.5433C23.9819 20.337 21.971 19.35 21.5953 19.2174C21.2196 19.0774 20.9471 19.0111 20.6745 19.4236C20.402 19.8361 19.6212 20.7495 19.3781 21.0294C19.1424 21.302 18.8993 21.3388 18.4942 21.1326C16.0928 19.9319 14.5165 18.989 12.9328 16.271C12.5129 15.5491 13.3527 15.6006 14.1335 14.039C14.2661 13.7665 14.1998 13.5308 14.0966 13.3245C13.9935 13.1183 13.1759 11.1073 12.837 10.2897C12.5056 9.49418 12.1667 9.60467 11.9163 9.58994C11.6806 9.5752 11.408 9.5752 11.1355 9.5752C10.8629 9.5752 10.421 9.67833 10.0453 10.0835C9.66963 10.496 8.61628 11.483 8.61628 13.494C8.61628 15.5049 10.0821 17.4495 10.281 17.7221C10.4873 17.9946 13.1611 22.1196 17.264 23.8948C19.8569 25.0145 20.8734 25.1102 22.1699 24.9187C22.958 24.8009 24.5859 23.9317 24.9248 22.9741C25.2636 22.0165 25.2636 21.1989 25.1605 21.0294C25.0647 20.8453 24.7922 20.7422 24.387 20.5433Z" fill="white"/>
</svg>
